/* XPM */
static char *result[] = {
/* columns rows colors chars-per-pixel */
"32 32 4 1 ",
"  c #E4A570",
". c #EAB585",
"X c #D38D5C",
"o c white",
/* pixels */
"                                ",
"                                ",
"                                ",
"                                ",
"                                ",
"                                ",
".    ....   ....   ....... .   .",
"XXXXXXX   XXXXX XXXXXXX       XX",
"                                ",
"                                ",
"                                ",
"                                ",
"                                ",
"                                ",
"                                ",
" ..... ....... .   ......    ...",
"        XXXX  XXXX XXXXXXXX XXXX",
"                                ",
"                                ",
"                                ",
"                                ",
"                                ",
"                                ",
"                                ",
"   ..... .......   . ... .......",
"XXXXXXXXXXXX XXXXXXXXX XXXXXX   ",
"                                ",
"                                ",
"                                ",
"                                ",
"                                ",
"                                "
};
