/* XPM */
static char *result[] = {
/* columns rows colors chars-per-pixel */
"32 32 6 1 ",
"  c black",
". c #27E027",
"X c #00916B",
"o c #04CA6C",
"O c gray93",
"+ c None",
/* pixels */
"++++++++++++++++++++++++++++++++",
"++++++++++++++++++++++++++++++++",
"++++++++++++++++++++++++++++++++",
"++++++++++++++++++++++++++++++++",
"++++++++++++++++++++++++++++++++",
"++++++++++++++++++++++++++++++++",
"++++++   +++++  ++++++++++++++++",
"+++++ ooo +++ oo +++++++++++++++",
"++++ OOOo ++ OOOo ++++++++++++++",
"++++    oo      oo +++++++++++++",
"++++ OOOoooooOOOoo +++++++++++++",
"+++ oooooooooooooo +++++++++++++",
"++ oooooooooooooooo ++++++++++++",
"+ oooooooooooooooooo +++++++++++",
"+ .............oooooo ++++++++++",
"++ .............oooooo  ++++++++",
"++ .............oooooooo  ++++++",
"+++ ............oooooooooo +++++",
"++++  ..........ooooooooooo ++++",
"++++++ .........oooooooooooo +++",
"++++++ XX......oooooooooooooo ++",
"++++++ XX......oooooooooooooo ++",
"+++++ XXXX....ooooooooooooooo ++",
"+++++ XXXXX...oooo.oooooooooo ++",
"++++ XXXXX  .ooooo.oooooooooo ++",
"++++ XXXX ++ oooo...ooooooooo ++",
"+++ XXXX ++ ooooo....ooooooo +++",
"++ XXXX ++ oooooXXoooooooooo +++",
"+++    ++++                 ++++",
"++++++++++++++++++++++++++++++++",
"++++++++++++++++++++++++++++++++",
"++++++++++++++++++++++++++++++++"
};
