/* XPM */
static char *result[] = {
/* columns rows colors chars-per-pixel */
"16 16 26 1 ",
"  c #ACD62A",
". c #A5CE2A",
"X c #9FC529",
"o c #ABD52A",
"O c #A5CD2A",
"+ c #ABD429",
"@ c #9FC429",
"# c #95BA22",
"$ c #A4CD2A",
"% c #9CC227",
"& c #97BD21",
"* c #B9E236",
"= c #A9D229",
"- c #9FC727",
"; c #B3DD35",
": c #AAD429",
"> c #A5CE27",
", c #A1C925",
"< c #B3DA33",
"1 c #9DC426",
"2 c #A4CD29",
"3 c #A8D228",
"4 c #AAD329",
"5 c #A3CC29",
"6 c #9EC429",
"7 c black",
/* pixels */
" ....  ..XoOo+@#",
"   .    ..   $%&",
"* *  . .   * o=-",
";*  .   .   *:>,",
".  .  ;  *. ;:<1",
".X     *.;.  234",
" X.  .     . O+5",
"   ;   . ..   .6",
" .  *   ..  X  X",
".   ; *  X.    .",
" .   .  .X  *   ",
" X .  .    .;*  ",
" X X.    . . ;.*",
" .   . *    ..  ",
"*  .   ;*  *   .",
"; * .   ;.*. .  "
};
