/* XPM */
static char *result[] = {
/* columns rows colors chars-per-pixel */
"32 32 3 1 ",
"  c #F77622",
". c #FDAE35",
"X c None",
/* pixels */
"XXXXXXXXXXXXXXXXXXXXXXXXXXXXXXXX",
"XXXXXXXXXXXXXXXXXXXXXXXXXXXXXXXX",
"XXXXXXXXXXXXXXXXXXXXXXXXXXXXXXXX",
"XXXXXXXXXXXXXXXXXXXXXXXXXXXXXXXX",
"XXXXXXX..             XXXXXXXXXX",
"XXXXXXX....            XXXXXXXXX",
"XXXXXXX......          XXXXXXXXX",
"XXXXXXX........        XXXXXXXXX",
"XXXXXXX..........      XXXXXXXXX",
"XXXXXXX............    XXXXXXXXX",
"XXXXXXX............    XXXXXXXXX",
"XXXXXXX............    XXXXXXXXX",
"XXXXXXX............    XXXXXXXXX",
"XXXXXXX............    XXXXXXXXX",
"XXXXXXX............    XXXXXXXXX",
"XXXXXXX............     XXXXXXXX",
"XXXXXXX............      XXXXXXX",
"XXXXXXX............      XXXXXXX",
"XXXXXXX............      XXXXXXX",
"XXXXXXX............      XXXXXXX",
"XXXXXXX............      XXXXXXX",
"XXXXXXX............      XXXXXXX",
"XXXXXXX............     XXXXXXXX",
"XXXXXXX............    XXXXXXXXX",
"XXXXXXXXX..........XXXXXXXXXXXXX",
"XXXXXXXXXXX........XXXXXXXXXXXXX",
"XXXXXXXXXXXXX......XXXXXXXXXXXXX",
"XXXXXXXXXXXXXXX....XXXXXXXXXXXXX",
"XXXXXXXXXXXXXXXXX..XXXXXXXXXXXXX",
"XXXXXXXXXXXXXXXXXXXXXXXXXXXXXXXX",
"XXXXXXXXXXXXXXXXXXXXXXXXXXXXXXXX",
"XXXXXXXXXXXXXXXXXXXXXXXXXXXXXXXX"
};
