/* XPM */
static char *result[] = {
/* columns rows colors chars-per-pixel */
"32 32 13 1 ",
"  c #4C423D",
". c #663346",
"X c #663D4D",
"o c #7F5968",
"O c #936D7C",
"+ c #A1887C",
"@ c #B2A58E",
"# c #B2B2A0",
"$ c #C1B6A2",
"% c #D9D9C3",
"& c #E5E5CE",
"* c #FFFFE5",
"= c None",
/* pixels */
"================================",
"================================",
"============       =============",
"=========== ******* ============",
"========== *&&&*&&&* ===========",
"========  *&%%%&%%%&*   ========",
"======= **&%%%%%%%%%&*&& =======",
"====== **&%%%%%%%%%%%&*&+  =====",
"====== *&%%%%%%%%%%%%%%%+@*  ===",
"====== @*&%%%%%%%%%%%%%@@@*** ==",
"====== O@*&&%%%%%%%%%%@@$*&%& ==",
"====== O.@**&&&%%%%%%@@$$*&%% ==",
"====== .Xo@@**&&%%%%@@$$#*&%% ==",
"====== XooOO++++@@@@@$$#*&%%% ==",
"=====  Xoo++++++$$$$$$#**&%%% ==",
"==== **ooO+++++$$$$$$$#*&%%%+ ==",
"==== &***OO++++#***#$**&%%%%+ ==",
"=== *&*&&*O#++$%%%***%*&%%%++ ==",
"=== %%&%%&**#+$$$%%%%%%%%++++ ==",
"=== %%%%%%&&*$$$$$+++++$$++++ ==",
"=== %%%%%%%&@$$$$$$$+++++$+++ ==",
"=== oo%%%%%@$$$$$$###****$$+ ===",
"=== OX+++++$$$####***&&&&+$ ====",
"=== XXo++++$$#****&&%%%&*+ =====",
"==== OX++++$#*&%%%%%%%%&++ =====",
"===== oo++$#*&%%%%%%%%%oo+ =====",
"====== oo$$++++++OOOOOoo  ======",
"=======                 ========",
"================================",
"================================",
"================================",
"================================"
};
