/* XPM */
static char *result[] = {
/* columns rows colors chars-per-pixel */
"32 32 6 1 ",
"  c black",
". c #27E027",
"X c #00916B",
"o c #04CA6C",
"O c gray93",
"+ c None",
/* pixels */
"++++++++++++++++++++++++++++++++",
"++++++++++++++++++++++++++++++++",
"++++++++++++++++++++++++++++++++",
"++++++++++++++++++++++++++++++++",
"++++++++++++++++++++++++++++++++",
"++++++++++++++++++++++++++++++++",
"++++++++++++++++++       +++++++",
"++++   +++++  +++ ooooooo  +++++",
"+++ ooo +++ oo + oooooooooo ++++",
"++ OOOo ++ OOOo oooooooooooo +++",
"++    oo      ooooooooooooooo ++",
"++ OOOoooooOOOooooooooooooooo ++",
"+ ooooooooooooooooooooooooooo   ",
" oooooooooooooooooooooooooooo oo",
"oooooooooooooooooooooooooooooooo",
".............ooooooooooooooooooo",
" .............ooooooooooooooooo ",
" .............ooooooooooooooooo ",
"+ ............ooooooooooooooooo ",
"++  ..........oooooooooooooooo +",
"++++ .........oooooooooooooooo +",
"+++++  ........oooooo.oo.. ooo +",
"+++++++ .......oooooo...   ooo +",
"++++++++  ......oooooX  ++ ooo +",
"++++++++ XXXXX   oooo +++++ o ++",
"++++++++ XXXXX + oooo ++++++ +++",
"+++++++ XXXXX + ooooo ++++++++++",
"+++++++ XXXX ++ oooo +++++++++++",
"++++++ XXXX ++ ooooo +++++++++++",
"+++++ XXXX ++ ooooo ++++++++++++",
"++++++    ++++     +++++++++++++",
"++++++++++++++++++++++++++++++++"
};
