/* XPM */
static char *result[] = {
/* columns rows colors chars-per-pixel */
"32 32 192 2 ",
"   c #69B1E3",
".  c #67AFE2",
"X  c #67BBDF",
"o  c #66BBDF",
"O  c #5CAADB",
"+  c #61AFDE",
"@  c #65B4E0",
"#  c #64BADF",
"$  c #70C0E6",
"%  c #6EBEE5",
"&  c #5FB4DC",
"*  c #5BB0DA",
"=  c #5AAFD9",
"-  c #5A9FDB",
";  c #66ADE1",
":  c #66B4E0",
">  c #5AA0DB",
",  c #5BA8DB",
"<  c #5DB2DA",
"1  c #5EABDC",
"2  c #6BBAE3",
"3  c #6FC4E4",
"4  c #69BFE2",
"5  c #6CC2E4",
"6  c #6BC1E3",
"7  c #67BCE1",
"8  c #62A9DF",
"9  c #5EA4DD",
"0  c #5BA9DB",
"q  c #5BA8DA",
"w  c #5BA0DB",
"e  c #69B0E3",
"r  c #64ACE1",
"t  c #6AC0E3",
"y  c #69B3E4",
"u  c #72BDE8",
"i  c #6CB6E5",
"p  c #6AB4E4",
"a  c #6DB7E5",
"s  c #68AFE2",
"d  c #66BADF",
"f  c #66ACE1",
"g  c #5AA7DA",
"h  c #5AB0D9",
"j  c #5DAADB",
"k  c #60A6DE",
"l  c #6EB8E6",
"z  c #68B2E3",
"x  c #6BB5E5",
"c  c #70BFE6",
"v  c #6CBAE4",
"b  c #68BDE0",
"n  c #68B0E2",
"m  c #71C6E6",
"M  c #71BBE8",
"N  c #73BDE8",
"B  c #75C1EA",
"V  c #74BFE9",
"C  c #6EB7E6",
"Z  c #5BB0D9",
"A  c #67AEE2",
"S  c #6AB1E3",
"D  c #6CB4E5",
"F  c #6FB8E6",
"G  c #70BBE7",
"H  c #70BAE7",
"J  c #6BC0E2",
"K  c #67B5E1",
"L  c #67ADE1",
"P  c #67ADE2",
"I  c #61B6DD",
"U  c #62B8DE",
"Y  c #69B9E3",
"T  c #67B1E3",
"R  c #61A8DF",
"E  c #5CA2DC",
"W  c #61A9DF",
"Q  c #5CA9DB",
"!  c #5DA3DD",
"~  c #6AB3E4",
"^  c #60B6DD",
"/  c #5DB2DB",
"(  c #5BA0DC",
")  c #5EA3DD",
"_  c #5CB1DA",
"`  c #67BBE0",
"'  c #6DC2E3",
"]  c #5EB3DB",
"[  c #67BCE0",
"{  c #5BA1DC",
"}  c #67AEE1",
"|  c #68B7E2",
" . c #67B6E1",
".. c #66B3E0",
"X. c #63B8DE",
"o. c #66AEE2",
"O. c #5FA6DE",
"+. c #60A7DF",
"@. c #5BB1DA",
"#. c #6BB4E4",
"$. c #68BDE1",
"%. c #5AA8DA",
"&. c #68AEE2",
"*. c #68BCE0",
"=. c #5CA1DC",
"-. c #67BCDF",
";. c #66B5E1",
":. c #6AB2E3",
">. c #6BB3E4",
",. c #63ABE0",
"<. c #64ADE1",
"1. c #64B3E0",
"2. c #6CC2E3",
"3. c #69BFE1",
"4. c #5CB2DA",
"5. c #73BFE9",
"6. c #71BCE8",
"7. c #6ABEE2",
"8. c #63B1DF",
"9. c #67BDE1",
"0. c #5DB3DB",
"q. c #6AB9E2",
"w. c #5EA5DD",
"e. c #69BDE1",
"r. c #6DC1E3",
"t. c #66BBE0",
"y. c #67B0E2",
"u. c #6DB5E5",
"i. c #66AEE1",
"p. c #63B9DE",
"a. c #6CB5E5",
"s. c #60AEDD",
"d. c #6EC4E4",
"f. c #72BCE8",
"g. c #74BEE9",
"h. c #73BEE8",
"j. c #65ADE1",
"k. c #67B4E1",
"l. c #61B0DE",
"z. c #64ABE0",
"x. c #6CC1E4",
"c. c #62B1DF",
"v. c #6CC0E3",
"b. c #68B6E1",
"n. c #68B1E3",
"m. c #73C9E7",
"M. c #66BCE0",
"N. c #61B7DD",
"B. c #69B7E2",
"V. c #6ABFE1",
"C. c #6EB7E5",
"Z. c #68B7E1",
"A. c #69B1E2",
"S. c #6AB8E2",
"D. c #60AEDE",
"F. c #63AAE0",
"G. c #71BBE7",
"H. c #6ABFE2",
"J. c #6DB6E5",
"K. c #69B2E3",
"L. c #6BB6E5",
"P. c #6CB7E5",
"I. c #5EB4DC",
"U. c #65BBE0",
"Y. c #6BBBE4",
"T. c #73C2E8",
"R. c #6EC3E4",
"E. c #66B5E0",
"W. c #68BEE0",
"Q. c #69B2E4",
"!. c #5DA3DC",
"~. c #67BDE0",
"^. c #69BEE1",
"/. c #5DABDC",
"(. c #61A7DF",
"). c #6BC1E2",
"_. c #63B2DF",
"`. c #6FB9E6",
"'. c #6AB3E3",
"]. c #60B5DC",
"[. c #5DA2DC",
"{. c #73C4E8",
"}. c #5FA5DE",
"|. c #6ABEE1",
" X c #69B7E1",
".X c #6CB5E4",
"XX c #62B7DD",
"oX c #6CB4E4",
"OX c #6CC1E3",
"+X c #6CB3E4",
"@X c #68B8E2",
"#X c white",
/* pixels */
"  . X o O + @ # # $ % & * = = - ; : - - - > , < 1 2 3 4 5 6 7 8 ",
"9 0 q w e r t y u i p a s ; d f - d d g g = h , j k l z x p c v ",
"b * > w n a m M N B V C s ; ; o o - - f - - - Z A S D F G H a J ",
"K L - f P 9 I U $ Y T R E h = w o - - ; ; f d o A s S R 8 W k 9 ",
"* ; ; ; > , Q ! ~ W ^ / * ( E ) / A ; - - - - g q A E ! 9 9 ! _ ",
"g g d = = = = w A . ` L > E R l ' ] [ - - - - - o o ( { Q 0 * * ",
"- ; ; - - - - d d = - - }   l t | ^  .g - - - = g ..d = w w > g ",
": ; f f ; ; ; ; ; = = = o ! X.| o.O.A o o g g - - - ; ; g - f f ",
"Z o - - - - = = = : ; ; - * 9 +.O.n L ; f d = - - ; f f ; o = h ",
") / ` = g g g g g - - ; ; ; [ @.[ L - g g ; ; d d g g = = - L E ",
"l '   A - - - - ; : o f - - - ; g g = = Z * * [ } > - - g > E #.",
"p $.+.. ; ; f f f f ..= Z %.g g : o : ( { &.*.E =.A } f f -.  r ",
"| ;.O.A > - - - - - Z *.  ! { g = g L A   :.2 ~   n { w - w b X.",
"+.O./ A ( ( ( w g q E R C a   P d X `   >.,.<.1.2.& E ( - - 0 3.",
". . A ` _ < 4._ * ( 9 <.5.6.^ _ w L b 7.8.9.4 z F R 0.* h = Z , ",
"; A E ) q.k k w.j Q e.r.$.t.O.{ > ( n >.3 4 i x y.u.  . q g - - ",
"i.A ) +.p.F l a.:.n s ] ^ O.E w o [ O s.d.f.g.h.H 8 9 { i.o ; ; ",
"( E O.p.9.y f.j.R ) A k.[ A } ; = w E w.l.j.G H z.k ! ( > = d d ",
"* < s.<.y x.V y.c.] _ = = o ; - = > A n S v.' W k 9 =.Z g - - : ",
"} b.k r n.V m.M.N.9 =.- > X o g g - } { E 1 B.] / 4._ , w - - ; ",
"w A V.a.F 7 M.C.+.) &.. Z.  n A = = o q , * =.n A.O.O.O.1 . f - ",
"g , j S.I 8 8 +.~ ~ ~ D.F.j.,.  [ f f - - w * s D H G.6.3 H.{ - ",
"- w { E   ] ] :.J.o.[ T K.x M I @.- ; ; ; f X   j.x L.P.p ,.*.Z ",
"g - ; P P A s I.U.Y.t 6 t T.;.s.* - ; - - - q / R.4 x P.x r Z.E.",
"o } w - - - w W.a z Q.y 6.r +.!.Z o } w - = - { :.,.9.t $.+ E > ",
"*.B.s { = = = { w.a.J.u.#.  ~.` L *.^./.* > - > P A.#.' (.! ( ( ",
"+ # ' ] ( - = > ( s E E { * = w E R l a 9 , w } w ( =._ . A } s ",
"<.t 6.>.=.- o o ; - = = = - - w A.l p 6.).*.b.1 ! =.* * , A { 9 ",
"_.n.`.'.A ; - - o g - - - = = o b X.$.t.].) R C p.& [.E !.b _ 1 ",
"O.R k n w - - g ; ; - - ; ; ; = { 9 +.k ! ] d.{.M D }.O.>.~ |.9 ",
" Xb.A w > - w Z Z w i.f - - = o ; A . . A n a $.M.8 .Xa <.r XXH.",
"  =.q > w E ] 9 9 ^./.0 %.g - g g ; - - - { w.oXOX+X,.y.Y @Xj.R "
};
