/* XPM */
static char *result[] = {
/* columns rows colors chars-per-pixel */
"32 32 6 1 ",
"  c #733E39",
". c #BE4A2F",
"X c #F77622",
"o c #FEAE34",
"O c #FEE761",
"+ c None",
/* pixels */
"++++++++++++++++++++++++++++++++",
"++++++++++++++++++++++++++++++++",
"++++++++++++++++++++++++++++++++",
"++++++++++++++++++++++++++++++++",
"++++++++..++++++++++++++++++++++",
"+++++++.++++++++++++++++++++++++",
"+++++++.++++++..............++++",
"++++++++......++++++++++++++.+++",
"+++++++++++++++++++++++++++++.++",
"++++++++++++++++++++++++++++.+++",
"++++++++++++XXXXXXXX XXXXX+.++++",
"++++++++++X.XXooOOO   oo...X++++",
"+++++++++XX.XXXXXXXX XXXXXX+++++",
"++++++++.XOX.XXXXXXXXXXXX+++++++",
"+++++++X.oXXX.XXXXXXXXX.++++++++",
"+++++++X.XXXXX.......+++++++++++",
"++++++.XO..XXXXX++.++.++++++++++",
"++++++XXOXX..X..X+++++..X.++++++",
"++++++XXXXXXX.XX+X+++..XX.++++++",
"++++++..XXXX.X++.+++.XXX.+++++++",
"++++++.X......X.+.+.XXX.++++++++",
"++++++.XoXXXX..X...XXX.+++++++++",
"++++++.XoXXX..XX.X.XX.++++++++++",
"+++++++.XX...XX.XXX.X+++++++++++",
"++++++++..XXXXX.XXX.++++++++++++",
"++++++++++........++++++++++++++",
"++++++++++++++++++++++++++++++++",
"++++++++++++++++++++++++++++++++",
"++++++++++++++++++++++++++++++++",
"++++++++++++++++++++++++++++++++",
"++++++++++++++++++++++++++++++++",
"++++++++++++++++++++++++++++++++"
};
